<?xml version="1.0" encoding="UTF-8" standalone="no" ?>
<!DOCTYPE svg PUBLIC "-//W3C//DTD SVG 1.1//EN" "http://www.w3.org/Graphics/SVG/1.1/DTD/svg11.dtd">
<svg xmlns="http://www.w3.org/2000/svg" xmlns:xlink="http://www.w3.org/1999/xlink" version="1.1" width="130" height="180" viewBox="0 0 130 180" xml:space="preserve">
<desc>Created with Fabric.js 5.3.0</desc>
<defs>
</defs>
<g transform="matrix(1 0 0 1 65.0000053808 90.0000022558)" id="LYAVLiMMN5wpF1HB0Klax"  >
<path style="stroke: rgb(190,142,63); stroke-width: 0; stroke-dasharray: none; stroke-linecap: butt; stroke-dashoffset: 0; stroke-linejoin: miter; stroke-miterlimit: 4; fill: rgb(63,63,63); fill-rule: nonzero; opacity: 1;" vector-effect="non-scaling-stroke"  transform=" translate(-64.9221746191, -89.9221677442)" d="M 129.84435 89.92217 L 129.84435 89.92217 L 129.84435 170.66827999999998 C 129.84435 175.73608 125.73608999999999 179.84434 120.66828999999998 179.84434 L 9.176059999999978 179.84434 C 4.108259999999978 179.84434 -2.1316282072803006e-14 175.73608 -2.1316282072803006e-14 170.66827999999998 L -2.1316282072803006e-14 9.176059999999978 C -2.1316282072803006e-14 4.108259999999978 4.108259999999978 -2.1316282072803006e-14 9.176059999999978 -2.1316282072803006e-14 L 120.66828999999998 -2.1316282072803006e-14 C 125.73608999999999 -2.1316282072803006e-14 129.84435 4.108259999999978 129.84435 9.176059999999978 z M 118.99773 171.84434 C 120.56987000000001 171.84434 121.84435 170.56986999999998 121.84435 168.99772 L 121.84435 89.92216999999998 L 121.84435 89.92216999999998 L 121.84435 10.846619999999973 C 121.84435 9.274469999999972 120.56987000000001 7.999999999999973 118.99773 7.999999999999973 L 10.846620000000001 7.999999999999973 C 9.27448 7.999999999999973 8.000000000000002 9.274469999999972 8.000000000000002 10.846619999999973 L 8.000000000000002 168.99772 C 8.000000000000002 170.56986999999998 9.274480000000002 171.84434 10.846620000000001 171.84434 z" stroke-linecap="round" />
</g>
<g transform="matrix(1 0 0 1 65.0000053808 90)" id="GY0xQNHuEJ0EnqTKa9Fag"  >
<path style="stroke: rgb(84,206,123); stroke-width: 0; stroke-dasharray: none; stroke-linecap: butt; stroke-dashoffset: 0; stroke-linejoin: miter; stroke-miterlimit: 4; fill: rgb(200,161,62); fill-rule: nonzero; opacity: 1;" vector-effect="non-scaling-stroke"  transform=" translate(-37.5, -37.5)" d="M 37.5 0 C 58.2 0 75 16.8 75 37.5 C 75 58.2 58.2 75 37.5 75 C 16.8 75 0 58.2 0 37.5 C 0 16.8 16.8 0 37.5 0 z M 8.26931 33.49998 C 8.09173 34.80811 8.000010000000001 36.14341 8.000010000000001 37.49999 C 8.000010000000001 38.85657 8.091730000000002 40.191849999999995 8.269300000000001 41.499979999999994 L 33.5 41.499979999999994 L 33.5 66.73069 C 34.80813 66.90827 36.14343 66.99999 37.50001 66.99999 C 38.856590000000004 66.99999 40.19187 66.90827 41.5 66.7307 L 41.5 41.49999 L 66.73071 41.49999 C 66.90828 40.19186 67 38.856579999999994 67 37.5 C 67 36.14341 66.90828 34.80812 66.7307 33.49999 L 41.49999 33.49999 L 41.49999 8.269289999999998 C 40.19186 8.091719999999999 38.856579999999994 7.999999999999998 37.5 7.999999999999998 C 36.14341 7.999999999999998 34.80812 8.091719999999999 33.49999 8.269299999999998 L 33.49999 33.49999 z" stroke-linecap="round" />
</g>
</svg>