<?xml version="1.0" encoding="UTF-8" standalone="no" ?>
<!DOCTYPE svg PUBLIC "-//W3C//DTD SVG 1.1//EN" "http://www.w3.org/Graphics/SVG/1.1/DTD/svg11.dtd">
<svg xmlns="http://www.w3.org/2000/svg" xmlns:xlink="http://www.w3.org/1999/xlink" version="1.1" width="130" height="180" viewBox="0 0 130 180" xml:space="preserve">
<desc>Created with Fabric.js 5.3.0</desc>
<defs>
</defs>
<g transform="matrix(1 0 0 1 65.0000053808 90.0000022558)" id="LYAVLiMMN5wpF1HB0Klax"  >
<path style="stroke: rgb(190,142,63); stroke-width: 0; stroke-dasharray: none; stroke-linecap: butt; stroke-dashoffset: 0; stroke-linejoin: miter; stroke-miterlimit: 4; fill: rgb(63,63,63); fill-rule: nonzero; opacity: 1;" vector-effect="non-scaling-stroke"  transform=" translate(-64.922175, -89.92217)" d="M 129.84435 89.92217 L 129.84435 89.92217 L 129.84435 170.66827999999998 C 129.84435 175.73608 125.73608999999999 179.84434 120.66828999999998 179.84434 L 9.176059999999978 179.84434 C 4.108259999999978 179.84434 -2.1316282072803006e-14 175.73608 -2.1316282072803006e-14 170.66827999999998 L -2.1316282072803006e-14 9.176059999999978 C -2.1316282072803006e-14 4.108259999999978 4.108259999999978 -2.1316282072803006e-14 9.176059999999978 -2.1316282072803006e-14 L 120.66828999999998 -2.1316282072803006e-14 C 125.73608999999999 -2.1316282072803006e-14 129.84435 4.108259999999978 129.84435 9.176059999999978 z M 118.99773 171.84434 C 120.56987000000001 171.84434 121.84435 170.56986999999998 121.84435 168.99772 L 121.84435 89.92216999999998 L 121.84435 89.92216999999998 L 121.84435 10.846619999999973 C 121.84435 9.274469999999972 120.56987000000001 7.999999999999973 118.99773 7.999999999999973 L 10.846620000000001 7.999999999999973 C 9.27448 7.999999999999973 8.000000000000002 9.274469999999972 8.000000000000002 10.846619999999973 L 8.000000000000002 168.99772 C 8.000000000000002 170.56986999999998 9.274480000000002 171.84434 10.846620000000001 171.84434 z" stroke-linecap="round" />
</g>
<g transform="matrix(1 0 0 1 65.0000087408 87.5000070109)" id="AMtyXe9uctbKmRAxJK4D7"  >
<path style="stroke: rgb(168,128,231); stroke-width: 0; stroke-dasharray: none; stroke-linecap: butt; stroke-dashoffset: 0; stroke-linejoin: miter; stroke-miterlimit: 4; fill: rgb(63,63,63); fill-rule: nonzero; opacity: 1;" vector-effect="non-scaling-stroke"  transform=" translate(-23.84388, -33.26581)" d="M 0.00001 66.53162 L 47.687760000000004 66.53162 L 47.687760000000004 31.791830000000004 L 43.71378000000001 31.791830000000004 L 43.71378000000001 19.642860000000006 C 43.71378000000001 8.800000000000006 34.81206000000001 7.105427357601002e-15 23.843880000000006 7.105427357601002e-15 C 12.875690000000006 7.105427357601002e-15 3.9739800000000045 8.800000000000008 3.9739800000000045 19.642860000000006 C 3.9739800000000045 19.643010000000007 3.9739800000000045 25.271450000000005 3.9739800000000045 31.791830000000004 L 4.440892098500626e-15 31.791830000000004 z M 37.7528 31.79183 L 9.934940000000001 31.79183 L 9.934940000000001 17.8829 L 10.077340000000001 17.8829 C 11.046410000000002 11.14983 16.843940000000003 5.97026 23.843870000000003 5.97026 C 30.843790000000002 5.97026 36.64132 11.14983 37.6104 17.8829 L 37.7528 17.8829 z" stroke-linecap="round" />
</g>
</svg>