<?xml version="1.0" encoding="UTF-8" standalone="no"?>
<!-- Created with Inkscape (http://www.inkscape.org/) -->

<svg
   version="1.1"
   id="svg2"
   width="310.66666"
   height="212"
   viewBox="0 0 310.66666 212"
   sodipodi:docname="2017_HOTROD_TOUR_Logo_Wappen_Berlin_Gold.ai"
   xmlns:inkscape="http://www.inkscape.org/namespaces/inkscape"
   xmlns:sodipodi="http://sodipodi.sourceforge.net/DTD/sodipodi-0.dtd"
   xmlns="http://www.w3.org/2000/svg"
   xmlns:svg="http://www.w3.org/2000/svg">
  <defs
     id="defs6">
    <clipPath
       clipPathUnits="userSpaceOnUse"
       id="clipPath16">
      <path
         d="M 0,159 H 233 V 0 H 0 Z"
         id="path14" />
    </clipPath>
  </defs>
  <sodipodi:namedview
     id="namedview4"
     pagecolor="#ffffff"
     bordercolor="#000000"
     borderopacity="0.25"
     inkscape:showpageshadow="2"
     inkscape:pageopacity="0.0"
     inkscape:pagecheckerboard="0"
     inkscape:deskcolor="#d1d1d1" />
  <g
     id="g8"
     inkscape:groupmode="layer"
     inkscape:label="2017_HOTROD_TOUR_Logo_Wappen_Berlin_Gold"
     transform="matrix(1.3333333,0,0,-1.3333333,0,212)">
    <g
       id="g10">
      <g
         id="g12"
         clip-path="url(#clipPath16)">
        <g
           id="g18"
           transform="translate(55.9238,83.6426)">
          <path
             d="m 0,0 -12.543,-1.17 -3.021,-15.533 c -0.885,-4.605 -0.262,-6.163 -0.262,-6.163 0,0 -1.005,-0.739 -3.526,-0.975 -4.55,-0.425 -5.343,1.57 -4.381,6.635 l 6.915,35.347 c 0.227,1.314 0.384,2.362 0.412,3.205 l -0.615,-0.058 c -5.596,-0.521 -8.471,-4.085 -8.591,-7.78 -0.059,-1.815 0.824,-2.896 2.362,-2.752 0.677,0.063 1.052,0.292 1.052,0.292 0,0 0.055,-0.189 0.042,-0.578 -0.051,-1.556 -1.656,-3.773 -4.791,-4.066 -3.997,-0.372 -6.372,1.991 -6.245,5.88 0.209,6.417 5.957,11.606 15.857,12.529 l 4.304,0.402 c 4.551,0.424 5.343,-1.57 4.381,-6.636 L -11.813,2.452 0.731,3.622 3.966,20.079 c 0.883,4.542 0.261,6.099 0.261,6.099 0,0 1.004,0.74 3.525,0.975 4.55,0.425 5.344,-1.569 4.381,-6.635 l -6.038,-31 c -0.738,-3.817 0.501,-5.317 2.591,-5.122 3.014,0.281 5.72,4.347 6.641,6.242 0.922,0.086 1.27,-0.528 1.113,-1.576 -0.682,-4.006 -5.786,-10.104 -11.443,-10.632 -4.366,-0.407 -7.277,2.424 -7.116,7.349 0.097,2.982 0.49,5.604 1.155,9.091 z"
             style="fill:#cdaa50;fill-opacity:1;fill-rule:nonzero;stroke:none"
             id="path20" />
        </g>
        <g
           id="g22"
           transform="translate(98.6201,85.5571)">
          <path
             d="m 0,0 c -0.047,-1.426 -0.214,-2.799 -0.441,-4.112 4.635,1.143 7.605,5.75 7.605,5.75 0.8,0.074 1.209,-0.534 1.054,-1.518 -0.443,-2.303 -4.431,-6.164 -9.37,-7.271 -2.344,-7.909 -8.171,-13.686 -16.534,-14.467 -6.518,-0.607 -11.173,3.288 -10.909,11.325 0.382,11.733 7.171,20.637 17.685,21.618 C -3.715,11.996 0.242,7.389 0,0 m -7.795,3.473 c -0.201,3.213 -1.559,4.831 -3.833,4.618 -3.075,-0.286 -6.38,-3.89 -8.417,-13.709 -0.363,-1.714 -0.718,-5.107 -0.771,-6.728 -0.133,-4.083 1.268,-6.214 3.85,-5.974 3.321,0.31 6.208,4.263 8.061,12.191 -1.497,1.087 -2.24,2.763 -2.169,4.902 0.072,2.204 1.236,4.057 3.279,4.7"
             style="fill:#cdaa50;fill-opacity:1;fill-rule:nonzero;stroke:none"
             id="path24" />
        </g>
        <g
           id="g26"
           transform="translate(106.0874,98.5967)">
          <path
             d="M 0,0 0.729,3.557 C 1.6,7.71 0.972,9.138 0.972,9.138 c 0,0 0.942,0.669 3.218,0.881 4.734,0.442 5.288,-1.381 4.34,-5.993 L 7.87,0.734 13.958,1.302 c 0,0 0.414,-0.479 0.386,-1.321 -0.037,-1.102 -0.799,-1.949 -2.152,-2.075 l -4.981,-0.465 -3.532,-18.1 c -0.731,-3.623 0.428,-5.647 3.318,-5.377 3.505,0.327 6.121,3.478 7.562,6.327 0.799,0.075 1.334,-0.457 1.051,-1.582 -1.051,-4.04 -6.214,-10.145 -12.056,-10.689 -4.55,-0.424 -8.006,2.614 -7.838,7.8 0.05,1.49 0.242,3.641 0.904,6.998 l 2.721,13.889 -3.997,-0.372 c 0,0 -0.413,0.478 -0.386,1.321 0.036,1.101 0.799,1.948 2.152,2.074 z"
             style="fill:#cdaa50;fill-opacity:1;fill-rule:nonzero;stroke:none"
             id="path28" />
        </g>
        <g
           id="g30"
           transform="translate(128.7793,91.4722)">
          <path
             d="m 0,0 c 4.164,7.367 8.359,10.021 11.125,10.279 3.014,0.281 4.861,-1.292 4.754,-4.598 -0.117,-3.63 -2.293,-6.417 -5.307,-6.698 -1.597,-0.149 -2.754,0.13 -2.754,0.13 0,0 0.848,1.566 0.907,3.316 C 8.754,3.336 8.402,3.821 7.479,3.735 6.494,3.643 5.115,2.674 2.988,-0.497 0.539,-4.15 -1.619,-8.358 -3.395,-17.636 c -0.74,-3.881 -0.168,-5.185 -0.168,-5.185 0,0 -0.943,-0.669 -3.216,-0.882 -4.735,-0.441 -5.227,1.387 -4.34,5.994 l 3.904,20.138 c 0.811,4.147 0.244,5.58 0.244,5.58 0,0 0.942,0.669 3.215,0.882 C 0.98,9.332 1.467,7.31 0.586,2.898 Z"
             style="fill:#cdaa50;fill-opacity:1;fill-rule:nonzero;stroke:none"
             id="path32" />
        </g>
        <g
           id="g34"
           transform="translate(168.5527,92.0801)">
          <path
             d="m 0,0 c -0.047,-1.426 -0.213,-2.799 -0.441,-4.112 4.636,1.143 7.605,5.75 7.605,5.75 C 7.965,1.712 8.373,1.104 8.219,0.12 7.775,-2.183 3.787,-6.044 -1.152,-7.151 c -2.344,-7.909 -8.17,-13.687 -16.534,-14.467 -6.517,-0.608 -11.171,3.288 -10.91,11.326 0.383,11.732 7.172,20.636 17.686,21.617 C -3.717,11.996 0.242,7.39 0,0 m -7.795,3.473 c -0.201,3.213 -1.559,4.831 -3.832,4.619 -3.076,-0.287 -6.381,-3.891 -8.418,-13.71 -0.363,-1.714 -0.717,-5.107 -0.771,-6.728 -0.133,-4.083 1.269,-6.214 3.851,-5.972 3.32,0.308 6.207,4.261 8.061,12.188 -1.498,1.088 -2.241,2.764 -2.17,4.903 0.072,2.204 1.236,4.058 3.279,4.7"
             style="fill:#cdaa50;fill-opacity:1;fill-rule:nonzero;stroke:none"
             id="path36" />
        </g>
        <g
           id="g38"
           transform="translate(199.9336,86.6709)">
          <path
             d="m 0,0 c -0.891,-4.736 0.049,-6.005 1.648,-5.856 1.782,0.166 2.395,2.033 2.395,2.033 0.861,0.08 1.268,-0.593 1.107,-1.771 -0.33,-2.616 -3.318,-5.867 -7.314,-6.24 -3.137,-0.292 -6.066,1.954 -5.969,6.81 -2.74,-5.037 -6.146,-7.94 -9.711,-8.272 -5.043,-0.471 -8.924,2.722 -8.676,10.305 0.471,14.455 8.688,22.007 15.883,22.678 2.889,0.269 4.944,-0.638 6.301,-2.256 l 3.541,18.36 c 0.811,4.146 0.244,5.58 0.244,5.58 0,0 0.942,0.669 3.215,0.882 4.736,0.441 5.229,-1.387 4.342,-5.993 z m -5.879,9.597 0.652,3.098 c -0.511,1.245 -1.621,2.951 -3.957,2.733 -4.181,-0.39 -9.128,-7.378 -9.468,-17.814 -0.119,-3.63 1.175,-5.254 3.451,-5.042 4.365,0.408 7.941,10.434 9.322,17.025"
             style="fill:#cdaa50;fill-opacity:1;fill-rule:nonzero;stroke:none"
             id="path40" />
        </g>
        <g
           id="g42"
           transform="translate(116.3267,17.7109)">
          <path
             d="m 0,0 -72.711,31.59 -0.93,5.229 v 0 c 0.614,0.301 1.083,0.597 1.402,0.83 2.226,1.64 3.198,4.451 2.53,7.075 -0.015,0.315 -0.02,1.32 0.346,3.22 l 0.242,1.246 c 0.415,-3.271 1.791,-6.119 3.996,-8.195 2.676,-2.52 6.353,-3.697 10.345,-3.332 3.497,0.326 6.774,1.858 9.539,4.013 2.483,-1.46 5.41,-2.235 8.576,-2.235 0.624,0 1.256,0.03 1.896,0.089 6.473,0.604 12.078,3.472 16.23,8.074 0.478,-0.657 1.002,-1.281 1.599,-1.842 2.51,-2.363 5.809,-3.623 9.41,-3.623 0.485,0 0.976,0.022 1.469,0.068 2.179,0.203 4.23,0.856 6.126,1.799 C 0.07,44.004 0.074,44.001 0.08,44 c 1.56,-0.59 3.119,-0.74 4.349,-0.74 0.791,0 1.451,0.059 1.871,0.099 3.539,0.329 5.58,1.46 6.491,2.1 2.289,1.631 3.298,4.49 2.619,7.15 -0.01,0.28 0.019,0.991 0.259,2.25 0.45,2.308 0.909,4.237 1.379,5.875 0.606,-5.316 2.942,-8.635 4.996,-10.567 2.913,-2.742 6.846,-4.203 11.227,-4.203 0.623,0 1.254,0.028 1.895,0.089 7.173,0.67 13.287,4.111 17.531,9.626 0.767,-1.31 1.631,-2.328 2.447,-3.097 2.557,-2.406 5.951,-3.689 9.684,-3.689 0.513,0 1.033,0.024 1.558,0.073 2.299,0.214 5.16,1.036 8.09,3.273 0.551,-0.351 1.131,-0.655 1.732,-0.91 L 72.71,31.59 Z m -84.181,96.379 -3.11,17.57 c 29.48,7.56 58.84,11.39 87.291,11.39 25.88,0 52.5,-3.17 79.291,-9.43 0.001,0 0.005,-0.001 0.007,-0.002 -0.043,-0.03 -0.099,-0.064 -0.138,-0.093 -2.27,-1.612 -3.285,-4.429 -2.641,-7.075 0.008,-0.292 -0.006,-1.143 -0.311,-2.714 L 74.162,95.418 C 73.564,95.426 72.96,95.403 72.343,95.346 66.726,94.821 61.224,91.659 57.246,86.67 56.9,86.235 56.585,85.771 56.265,85.313 c -0.783,1.247 -1.644,2.24 -2.463,3.01 -2.332,2.196 -6.496,4.682 -13.111,4.07 -3.824,-0.358 -7.324,-1.495 -10.395,-3.282 -2.05,1.309 -4.599,1.888 -7.336,1.628 -1.451,-0.14 -3.49,-0.61 -5.83,-1.969 -0.431,-0.25 -0.88,-0.531 -1.33,-0.851 -0.15,0.09 -0.291,0.18 -0.441,0.26 -2.889,1.58 -6.059,1.28 -7.289,1.17 -1.02,-0.099 -1.92,-0.26 -2.699,-0.45 -0.149,1.898 -0.748,3.921 -2.321,5.673 -3.254,3.634 -8.127,3.181 -9.723,3.031 -3.544,-0.331 -5.586,-1.454 -6.487,-2.094 -2.31,-1.64 -3.315,-4.519 -2.616,-7.188 0.003,-0.214 -0.011,-0.682 -0.129,-1.458 -1.528,-0.509 -2.837,-1.406 -3.861,-2.551 -2.349,1.155 -5.458,1.93 -9.476,1.557 -5.096,-0.475 -9.617,-2.334 -13.314,-5.277 l 0.896,4.602 c 0.437,2.302 1.46,7.692 -2.036,11.535 -2.196,2.416 -5.422,3.438 -9.58,3.054 -3.812,-0.356 -5.953,-1.567 -6.89,-2.258 -1.687,-1.242 -2.654,-3.157 -2.732,-5.153 -0.377,0.842 -0.891,1.659 -1.58,2.417 -2.196,2.415 -5.417,3.441 -9.58,3.056 l -4.304,-0.402 c -2.052,-0.192 -3.989,-0.565 -5.817,-1.072 z m 179.487,18.55 c -0.512,0.564 -1.066,1.018 -1.637,1.4 v 0.01 c -0.08,1.25 -0.949,2.34 -2.209,2.67 -30.871,8.15 -61.65,12.28 -91.46,12.28 -29.821,0 -60.591,-4.13 -91.461,-12.28 -1.5,-0.39 -2.44,-1.87 -2.17,-3.39 l 3.78,-21.36 0.02,-0.1 0.004,-0.02 c -6.33,-3.381 -10.272,-8.981 -10.491,-15.702 -0.127,-3.869 1.191,-7.306 3.713,-9.68 2.303,-2.17 5.447,-3.262 8.912,-3.179 l -3.052,-15.597 c -0.437,-2.301 -1.461,-7.691 2.035,-11.534 1.895,-2.084 4.554,-3.134 7.919,-3.134 0.441,0 0.903,0.03 1.369,0.066 l 10e-4,-0.009 1.13,-6.391 c 0.17,-0.979 0.83,-1.809 1.74,-2.209 L -1.19,-5.971 c 0.379,-0.17 0.78,-0.25 1.19,-0.25 0.399,0 0.81,0.08 1.179,0.25 L 76.541,26.77 c 0.919,0.4 1.568,1.23 1.75,2.209 l 3.798,21.451 v 10e-4 c 6.709,0.636 12.567,5.944 13.334,12.029 0.506,3.72 -1.097,6.027 -2.097,7.071 -0.7,0.729 -1.526,1.3 -2.432,1.695 l 6.326,32.725 c 0.455,2.376 1.406,7.32 -1.914,10.978"
             style="fill:#cdaa50;fill-opacity:1;fill-rule:nonzero;stroke:none"
             id="path44" />
        </g>
        <g
           id="g46"
           transform="translate(107.9282,48.6211)">
          <path
             d="m 0,0 c 2.101,0.195 2.957,1.342 3.001,2.666 0.013,0.407 -0.122,0.699 -0.238,0.815 0,0 -0.883,-0.488 -2.285,-0.619 -4.784,-0.445 -6.673,-0.039 -9.452,-0.298 -4.276,-0.398 -6.462,-2.43 -6.544,-4.952 -0.049,-1.527 0.883,-2.457 2.454,-2.309 1.232,0.115 1.862,0.985 1.883,1.596 0.004,0.154 -0.017,0.228 -0.017,0.228 0,0 -0.147,-0.091 -0.413,-0.114 -0.604,-0.058 -0.952,0.368 -0.929,1.081 0.048,1.452 1.274,2.86 3.473,3.065 0.918,0.086 1.253,0.016 1.997,-0.067 0,0 -0.037,-0.385 -0.154,-1.004 l -2.716,-13.89 c -0.379,-1.989 -0.067,-2.773 1.72,-2.606 0.991,0.093 1.386,0.383 1.386,0.383 0,0 -0.246,0.612 0.103,2.421 L -3.983,0.491 C -2.597,0.163 -1.716,-0.16 0,0"
             style="fill:#cdaa50;fill-opacity:1;fill-rule:nonzero;stroke:none"
             id="path48" />
        </g>
        <g
           id="g50"
           transform="translate(112.269,39.1475)">
          <path
             d="m 0,0 c -0.728,-3.114 -1.862,-4.667 -3.167,-4.789 -1.015,-0.095 -1.566,0.743 -1.513,2.348 0.02,0.636 0.16,1.969 0.303,2.643 0.8,3.859 2.099,5.275 3.307,5.386 C -0.176,5.672 0.357,5.036 0.436,3.774 -0.367,3.521 -0.824,2.793 -0.852,1.927 -0.88,1.086 -0.588,0.428 0,0 M 26.102,9.368 C 25.014,9.267 23.366,8.225 21.731,5.329 l 0.228,1.139 c 0.346,1.733 0.157,2.528 -1.705,2.354 -0.894,-0.083 -1.263,-0.345 -1.263,-0.345 0,0 0.222,-0.564 -0.096,-2.194 L 17.454,-1.144 C 16.928,-1.689 16.36,-2.028 15.887,-2.072 15.018,-2.154 14.629,-1.478 14.92,0.073 l 1.131,5.844 c 0.348,1.81 0.155,2.527 -1.707,2.355 -0.892,-0.084 -1.261,-0.348 -1.261,-0.348 0,0 0.199,-0.515 -0.063,-1.936 C 12.583,3.689 11.456,0.866 10.362,-0.887 9.7,-1.964 9.049,-2.71 8.518,-2.759 7.819,-2.825 7.5,-2.195 7.79,-0.719 L 8.95,5.253 C 9.295,7.064 9.104,7.782 7.243,7.608 6.348,7.525 5.979,7.262 5.979,7.262 c 0,0 0.223,-0.563 -0.096,-2.193 L 5.258,1.873 C 4.758,1.429 4.108,0.986 3.326,0.793 3.415,1.31 3.481,1.85 3.499,2.409 3.594,5.312 2.04,7.123 -0.788,6.859 -4.919,6.475 -7.586,2.976 -7.737,-1.635 c -0.103,-3.158 1.726,-4.689 4.287,-4.45 3.286,0.306 5.575,2.577 6.496,5.685 0.714,0.159 1.376,0.467 1.937,0.836 -0.209,-1.148 -0.302,-1.964 -0.331,-2.82 -0.057,-1.757 0.919,-2.86 2.538,-2.708 1.328,0.124 2.414,0.936 3.477,2.483 0.404,0.57 0.787,1.24 1.148,1.985 -0.035,-0.358 -0.043,-0.639 -0.051,-0.868 -0.068,-2.038 1.055,-3.075 2.723,-2.92 1.056,0.1 1.998,0.688 2.75,1.422 0.064,-0.797 0.543,-1.114 1.828,-0.993 0.894,0.083 1.266,0.345 1.266,0.345 0,0 -0.225,0.513 0.066,2.038 0.695,3.645 1.545,5.298 2.508,6.734 0.836,1.246 1.377,1.626 1.763,1.662 0.362,0.034 0.5,-0.155 0.489,-0.513 -0.022,-0.687 -0.356,-1.302 -0.356,-1.302 0,0 0.455,-0.11 1.082,-0.052 1.186,0.111 2.039,1.206 2.086,2.633 0.043,1.298 -0.683,1.917 -1.867,1.806"
             style="fill:#cdaa50;fill-opacity:1;fill-rule:nonzero;stroke:none"
             id="path52" />
        </g>
        <g
           id="g54"
           transform="translate(192.877,97.4453)">
          <path
             d="m 0,0 c -1.379,-6.591 -4.955,-16.617 -9.322,-17.024 -2.276,-0.213 -3.571,1.411 -3.451,5.041 0.339,10.436 5.289,17.424 9.468,17.814 2.338,0.218 3.448,-1.488 3.957,-2.733 z m -34.406,-10.318 c -1.852,-7.927 -4.74,-11.88 -8.059,-12.189 -2.584,-0.241 -3.986,1.89 -3.853,5.973 0.052,1.621 0.41,5.014 0.771,6.728 2.037,9.819 5.342,13.423 8.418,13.71 2.274,0.212 3.631,-1.406 3.832,-4.619 -2.043,-0.641 -3.207,-2.496 -3.279,-4.7 -0.07,-2.139 0.672,-3.815 2.17,-4.903 m -69.933,-6.523 c -1.853,-7.927 -4.74,-11.88 -8.061,-12.19 -2.582,-0.24 -3.984,1.891 -3.85,5.974 0.052,1.621 0.408,5.014 0.77,6.728 2.037,9.819 5.343,13.423 8.417,13.709 2.275,0.213 3.633,-1.405 3.834,-4.618 -2.044,-0.643 -3.208,-2.496 -3.28,-4.7 -0.07,-2.139 0.673,-3.815 2.17,-4.903 M 12.885,26.663 c 0.885,4.606 0.392,6.434 -4.34,5.993 -2.275,-0.213 -3.217,-0.882 -3.217,-0.882 0,0 0.567,-1.434 -0.244,-5.58 L 1.543,7.834 c -1.357,1.618 -3.412,2.525 -6.301,2.256 -5.519,-0.515 -11.627,-5.095 -14.39,-13.72 -1.182,-1.434 -3.59,-3.879 -6.793,-4.67 0.226,1.313 0.394,2.686 0.439,4.112 0.242,7.39 -3.715,11.996 -10.91,11.325 -5.533,-0.516 -10.02,-3.241 -13.098,-7.404 0.059,0.374 0.102,0.757 0.114,1.152 0.109,3.306 -1.739,4.879 -4.754,4.598 -2.766,-0.258 -6.961,-2.912 -11.123,-10.279 l 0.584,2.899 c 0.878,4.411 0.394,6.433 -4.34,5.992 -2.276,-0.213 -3.217,-0.882 -3.217,-0.882 0,0 0.566,-1.433 -0.244,-5.58 l -3.657,-18.858 c -1.324,-1.317 -2.945,-2.307 -4.823,-2.482 -2.89,-0.271 -4.05,1.754 -3.319,5.377 l 3.533,18.1 4.981,0.465 c 1.353,0.126 2.115,0.973 2.152,2.075 0.025,0.842 -0.387,1.321 -0.387,1.321 l -6.087,-0.568 0.66,3.291 c 0.947,4.613 0.395,6.436 -4.341,5.994 -2.276,-0.212 -3.217,-0.881 -3.217,-0.881 0,0 0.628,-1.428 -0.243,-5.581 l -0.73,-3.557 -2.889,-0.27 c -1.353,-0.126 -2.116,-0.974 -2.152,-2.074 -0.027,-0.843 0.386,-1.321 0.386,-1.321 l 3.997,0.372 -2.15,-10.969 c -1.289,-1.175 -3.026,-2.379 -5.099,-2.89 0.227,1.313 0.394,2.686 0.441,4.112 0.241,7.389 -3.716,11.996 -10.91,11.325 -10.514,-0.981 -17.303,-9.885 -17.686,-21.618 -0.033,-1.018 0.014,-1.969 0.132,-2.853 -1.296,-1.928 -3.337,-4.166 -5.546,-4.372 -2.091,-0.196 -3.329,1.304 -2.592,5.122 l 6.038,31 c 0.963,5.065 0.169,7.06 -4.381,6.635 -2.52,-0.235 -3.525,-0.975 -3.525,-0.975 0,0 0.623,-1.557 -0.261,-6.099 l -3.234,-16.457 -12.544,-1.17 3.162,16.127 c 0.962,5.066 0.17,7.06 -4.38,6.636 l -4.304,-0.402 c -9.9,-0.923 -15.648,-6.112 -15.858,-12.529 -0.127,-3.889 2.248,-6.252 6.245,-5.88 3.136,0.293 4.741,2.51 4.791,4.066 0.014,0.388 -0.042,0.578 -0.042,0.578 0,0 -0.375,-0.229 -1.051,-0.292 -1.538,-0.144 -2.421,0.937 -2.363,2.752 0.121,3.695 2.995,7.259 8.591,7.78 l 0.615,0.058 c -0.027,-0.844 -0.184,-1.891 -0.411,-3.205 l -6.916,-35.347 c -0.962,-5.066 -0.168,-7.061 4.382,-6.636 2.521,0.236 3.525,0.975 3.525,0.975 0,0 -0.623,1.558 0.262,6.164 l 3.021,15.533 12.544,1.17 -0.965,-5.13 c -0.665,-3.487 -1.058,-6.109 -1.155,-9.092 -0.161,-4.925 2.751,-7.756 7.117,-7.348 4.183,0.39 8.059,3.827 10.072,7.212 1.667,-3.944 5.333,-5.776 9.94,-5.346 8.364,0.78 14.191,6.558 16.534,14.468 1.885,0.422 3.629,1.246 5.093,2.231 -0.541,-2.91 -0.712,-4.851 -0.757,-6.222 -0.168,-5.185 3.287,-8.223 7.837,-7.799 2.853,0.265 5.539,1.861 7.669,3.89 0.091,-2.198 1.3,-3.053 4.69,-2.738 2.276,0.213 3.217,0.883 3.217,0.883 0,0 -0.572,1.304 0.17,5.184 1.772,9.278 3.934,13.486 6.381,17.14 2.127,3.17 3.506,4.14 4.49,4.231 0.924,0.086 1.276,-0.398 1.246,-1.306 -0.058,-1.75 -0.906,-3.316 -0.906,-3.316 0,0 1.156,-0.278 2.756,-0.129 0.978,0.091 1.869,0.451 2.629,1.016 -1.203,-2.881 -1.91,-6.15 -2.026,-9.684 -0.261,-8.038 4.393,-11.934 10.91,-11.326 8.364,0.781 14.192,6.558 16.534,14.467 2.511,0.563 4.775,1.839 6.455,3.259 -0.229,-1.423 -0.389,-2.917 -0.442,-4.508 -0.248,-7.583 3.633,-10.776 8.676,-10.305 3.567,0.332 6.971,3.235 9.711,8.272 -0.098,-4.856 2.832,-7.102 5.969,-6.81 3.996,0.373 6.984,3.624 7.314,6.24 0.16,1.178 -0.246,1.851 -1.107,1.771 0,0 -0.613,-1.867 -2.395,-2.033 -1.599,-0.149 -2.539,1.12 -1.648,5.856 z"
             style="fill:#ffffff;fill-opacity:1;fill-rule:nonzero;stroke:none"
             id="path56" />
        </g>
        <g
           id="g58"
           transform="translate(133.0859,122.9204)">
          <path
             d="M 0,0 H 1.234 L 2.92,8.665 H 2.949 L 2.926,0 H 4.949 L 6.922,10.154 H 5.602 L 3.963,1.714 H 3.934 l -0.02,8.44 H 1.973 Z m -5.922,0 h 1.404 l 1.975,10.154 h -1.404 z m -7.904,0 h 3.767 l 0.229,1.18 h -2.363 l 1.746,8.974 h -1.407 z m -5.839,8.974 h 0.675 c 0.873,0 0.931,-0.141 0.638,-1.646 -0.295,-1.52 -0.491,-1.731 -1.604,-1.731 h -0.366 z M -22.815,0 h 1.405 l 0.859,4.417 h 0.479 c 0.929,0 1.05,-0.253 0.864,-1.21 L -19.655,0.915 C -19.734,0.506 -19.755,0.253 -19.664,0 h 1.321 c -0.003,0.422 0.096,0.929 0.167,1.294 l 0.429,2.208 c 0.186,0.957 -0.042,1.449 -0.978,1.547 l 0.006,0.028 c 1.22,0.351 1.517,0.942 1.783,2.307 0.433,2.222 0.327,2.77 -1.726,2.77 h -2.179 z m -7.946,0 h 3.824 l 0.229,1.18 h -2.418 l 0.667,3.434 h 2.278 l 0.229,1.179 h -2.277 l 0.617,3.181 h 2.419 l 0.229,1.18 h -3.824 z m -5.822,9.059 h 0.662 c 0.9,0 1.029,-0.282 0.804,-1.436 -0.322,-1.661 -0.44,-1.83 -1.284,-1.83 h -0.817 z m -0.848,-4.361 h 0.915 c 0.775,0 0.858,-0.225 0.559,-1.759 -0.312,-1.604 -0.499,-1.843 -1.301,-1.843 h -0.873 z M -39.749,0 h 2.207 c 2.054,0 2.471,0.703 2.897,2.897 0.337,1.731 0.186,2.11 -0.897,2.321 l 0.005,0.028 c 0.98,0.126 1.366,0.449 1.755,2.447 0.361,1.857 0.183,2.461 -1.547,2.461 h -2.446 z"
             style="fill:#cdaa50;fill-opacity:1;fill-rule:nonzero;stroke:none"
             id="path60" />
        </g>
        <g
           id="g62"
           transform="translate(133.0859,122.9204)">
          <path
             d="M 0,0 H 1.234 L 2.92,8.665 H 2.949 L 2.926,0 H 4.949 L 6.922,10.154 H 5.602 L 3.963,1.714 H 3.934 l -0.02,8.44 H 1.973 Z m -5.922,0 h 1.404 l 1.975,10.154 h -1.404 z m -7.904,0 h 3.767 l 0.229,1.18 h -2.363 l 1.746,8.974 h -1.407 z m -5.839,8.974 h 0.675 c 0.873,0 0.931,-0.141 0.638,-1.646 -0.295,-1.52 -0.491,-1.731 -1.604,-1.731 h -0.366 z M -22.815,0 h 1.405 l 0.859,4.417 h 0.479 c 0.929,0 1.05,-0.253 0.864,-1.21 L -19.655,0.915 C -19.734,0.506 -19.755,0.253 -19.664,0 h 1.321 c -0.003,0.422 0.096,0.929 0.167,1.294 l 0.429,2.208 c 0.186,0.957 -0.042,1.449 -0.978,1.547 l 0.006,0.028 c 1.22,0.351 1.517,0.942 1.783,2.307 0.433,2.222 0.327,2.77 -1.726,2.77 h -2.179 z m -7.946,0 h 3.824 l 0.229,1.18 h -2.418 l 0.667,3.434 h 2.278 l 0.229,1.179 h -2.277 l 0.617,3.181 h 2.419 l 0.229,1.18 h -3.824 z m -5.822,9.059 h 0.662 c 0.9,0 1.029,-0.282 0.804,-1.436 -0.322,-1.661 -0.44,-1.83 -1.284,-1.83 h -0.817 z m -0.848,-4.361 h 0.915 c 0.775,0 0.858,-0.225 0.559,-1.759 -0.312,-1.604 -0.499,-1.843 -1.301,-1.843 h -0.873 z M -39.749,0 h 2.207 c 2.054,0 2.471,0.703 2.897,2.897 0.337,1.731 0.186,2.11 -0.897,2.321 l 0.005,0.028 c 0.98,0.126 1.366,0.449 1.755,2.447 0.361,1.857 0.183,2.461 -1.547,2.461 h -2.446 z"
             style="fill:none;stroke:#cdaa50;stroke-width:0.143;stroke-linecap:butt;stroke-linejoin:miter;stroke-miterlimit:2.25;stroke-dasharray:none;stroke-opacity:1"
             id="path64" />
        </g>
      </g>
    </g>
  </g>
</svg>
