<svg width="138" height="96" version="1.1" xmlns="http://www.w3.org/2000/svg" desc="Created with imagetracer.js version 1.2.6" ><path fill="rgb(0,0,0)" stroke="rgb(0,0,0)" stroke-width="1" opacity="1" d="M 0 0 L 138 0 L 138 96 L 0 96 L 0 0 Z M 50 11 L 49 12 L 31 14 L 19 17 L 17 19 L 19 29 L 19 32 L 14 37 L 14 45 L 18 48 L 20 48 L 18 59 L 19 63 L 22 65 L 25 65 L 26 70 L 68 88 L 76 87 L 114 70 L 115 69 L 117 58 L 122 55 L 124 52 L 124 47 L 122 45 L 125 31 L 125 21 L 119 16 L 99 12 L 92 12 L 91 11 L 50 11 Z " /><path fill="rgb(0,0,0)" stroke="rgb(0,0,0)" stroke-width="1" opacity="1" d="M 57.5 15 L 83.5 15 L 84.5 16 L 100.5 17 L 113 20.5 L 112 21.5 L 112 30 L 107.5 31 L 101.5 35 L 96.5 32 L 91.5 32 L 86.5 34 L 81.5 33 L 80.5 34 L 74.5 34 L 71.5 30 L 65.5 29 L 61 32.5 L 60.5 36 L 50.5 36 L 47.5 38 L 48 36.5 L 48 32.5 L 45.5 29 L 38.5 28 L 34.5 31 L 31.5 29 L 25.5 29 L 23 30 L 22 21 L 34.5 18 L 39.5 18 L 46.5 16 L 56.5 16 L 57.5 15 Z M 58 19 L 57 22 L 57 26 L 60 26 L 62 22 L 62 26 L 65 26 L 65 25 L 66 25 L 66 26 L 70 26 L 71 21 L 69 19 L 67 23 L 65 22 L 66 21 L 66 19 L 63 19 L 63 21 L 61 19 L 58 19 Z M 72 19 L 71 25 L 71 26 L 75 26 L 74 24 L 75 21 L 75 19 L 72 19 Z M 77 19 L 76 22 L 76 26 L 78 26 L 79 22 L 79 19 L 77 19 Z M 80 19 L 79 24 L 79 26 L 83 26 L 84 24 L 84 19 L 80 19 Z " /><path fill="rgb(0,0,0)" stroke="rgb(0,0,0)" stroke-width="1" opacity="1" d="M 79.5 54 L 85.5 59 L 93.5 59 L 100.5 55 L 104.5 58 L 108.5 58 L 111.5 56 L 112 59.5 L 111 60.5 L 111 65.5 L 109.5 67 L 69.5 84 L 39.5 70 L 30 67 L 32.5 61 L 36.5 64 L 41.5 64 L 45.5 62 L 46.5 63 L 53.5 63 L 60.5 59 L 66.5 62 L 67.5 61 L 75.5 61 L 79 58.5 L 80 55.5 L 79.5 54 Z M 60 65 L 56 68 L 56 70 L 60 70 L 59 75 L 59 77 L 62 77 L 63 74 L 63 76 L 66 77 L 69 76 L 70 74 L 70 76 L 74 75 L 76 76 L 80 75 L 81 72 L 81 70 L 84 70 L 84 67 L 78 67 L 78 73 L 77 73 L 77 67 L 75 67 L 74 73 L 73 73 L 74 70 L 74 68 L 71 68 L 71 71 L 70 70 L 67 68 L 64 72 L 63 70 L 68 67 L 68 65 L 60 65 Z " /><path fill="rgb(0,0,0)" stroke="rgb(0,0,0)" stroke-width="1" opacity="1" d="M 60.5 67 L 61 69 L 59 68.5 L 60.5 67 Z " /><path fill="rgb(0,0,0)" stroke="rgb(0,0,0)" stroke-width="1" opacity="1" d="M 66.5 71 L 67 73.5 L 66 73.5 L 66.5 71 Z " /><path fill="rgb(127,127,0)" stroke="rgb(127,127,0)" stroke-width="1" opacity="1" d="M 105.5 35 L 103.5 38 L 105.5 35 Z " /><path fill="rgb(127,127,0)" stroke="rgb(127,127,0)" stroke-width="1" opacity="1" d="M 24.5 36 L 26 36.5 L 23 38.5 L 22.5 40 L 22 38.5 L 24.5 36 Z " /><path fill="rgb(127,127,0)" stroke="rgb(127,127,0)" stroke-width="1" opacity="1" d="M 79.5 37 L 78.5 39 L 79.5 37 Z " /><path fill="rgb(127,127,0)" stroke="rgb(127,127,0)" stroke-width="1" opacity="1" d="M 111.5 37 L 112.5 39 L 111.5 37 Z " /><path fill="rgb(127,127,0)" stroke="rgb(127,127,0)" stroke-width="1" opacity="1" d="M 92.5 38 L 93.5 40 L 92.5 38 Z " /><path fill="rgb(127,127,0)" stroke="rgb(127,127,0)" stroke-width="1" opacity="1" d="M 80.5 41 L 79.5 43 L 80.5 41 Z " /><path fill="rgb(127,127,0)" stroke="rgb(127,127,0)" stroke-width="1" opacity="1" d="M 101.5 41 L 100.5 43 L 101.5 41 Z " /><path fill="rgb(127,127,0)" stroke="rgb(127,127,0)" stroke-width="1" opacity="1" d="M 52.5 42 L 54 42.5 L 51.5 44 L 52.5 42 Z " /><path fill="rgb(127,127,0)" stroke="rgb(127,127,0)" stroke-width="1" opacity="1" d="M 61.5 45 L 60.5 47 L 61.5 45 Z " /><path fill="rgb(127,127,0)" stroke="rgb(127,127,0)" stroke-width="1" opacity="1" d="M 100.5 46 L 101 48.5 L 100 48.5 L 100.5 46 Z " /><path fill="rgb(127,127,0)" stroke="rgb(127,127,0)" stroke-width="1" opacity="1" d="M 91.5 49 L 89.5 52 L 88.5 50 L 89.5 51 L 91.5 49 Z " /><path fill="rgb(127,127,0)" stroke="rgb(127,127,0)" stroke-width="1" opacity="1" d="M 60.5 50 L 59.5 52 L 60.5 50 Z " /><path fill="rgb(127,127,0)" stroke="rgb(127,127,0)" stroke-width="1" opacity="1" d="M 111.5 50 L 110.5 52 L 111.5 50 Z " /><path fill="rgb(127,127,0)" stroke="rgb(127,127,0)" stroke-width="1" opacity="1" d="M 96.5 51 L 95.5 53 L 96.5 51 Z " /><path fill="rgb(127,127,0)" stroke="rgb(127,127,0)" stroke-width="1" opacity="1" d="M 42.5 52 L 43 53.5 L 40.5 55 L 40.5 54 L 42 54 L 42.5 52 Z " /><path fill="rgb(127,127,0)" stroke="rgb(127,127,0)" stroke-width="1" opacity="1" d="M 87.5 55 L 90 55.5 L 87.5 56 L 87.5 55 Z " /><path fill="rgb(127,127,127)" stroke="rgb(127,127,127)" stroke-width="1" opacity="1" d="M 99.5 54 L 98.5 56 L 99.5 54 Z " /><path fill="rgb(254,127,0)" stroke="rgb(254,127,0)" stroke-width="1" opacity="1" d="M 49.5 11 L 51.5 11 L 87.5 11 L 88.5 12 L 90.5 12 L 98.5 12 L 103.5 14 L 114.5 15 L 121.5 17 L 124 19.5 L 125 21.5 L 125 30.5 L 123 35.5 L 122 44.5 L 124 46.5 L 124 51.5 L 121.5 55 L 117 57.5 L 115 63.5 L 115 68.5 L 113.5 70 L 72.5 88 L 68.5 88 L 30.5 72 L 26 68.5 L 24.5 65 L 21 65 L 21 63 L 19 63 L 19 60.5 L 19 58.5 L 20 48 L 14 44.5 L 14 37.5 L 19 31.5 L 19 28.5 L 17 19.5 L 22.5 16 L 49.5 11 Z M 55 15 L 54 16 L 34 18 L 22 21 L 23 30 L 27 29 L 32 29 L 35 31 L 39 28 L 44 28 L 47 32 L 48 37 L 52 36 L 60 37 L 61 36 L 61 33 L 66 29 L 72 30 L 73 34 L 82 34 L 83 33 L 87 34 L 92 32 L 97 32 L 102 36 L 106 32 L 111 31 L 112 30 L 112 24 L 113 21 L 107 18 L 96 17 L 95 16 L 86 16 L 85 15 L 58 15 L 57 16 L 55 15 Z M 116 21 L 115 26 L 115 28 L 114 33 L 113 34 L 106 35 L 100 44 L 99 44 L 100 42 L 97 36 L 95 35 L 88 37 L 85 36 L 79 38 L 75 36 L 70 38 L 70 37 L 69 34 L 66 32 L 64 34 L 64 38 L 63 37 L 60 40 L 60 41 L 62 41 L 62 45 L 62 47 L 60 46 L 60 43 L 57 39 L 52 39 L 46 44 L 44 44 L 44 46 L 44 48 L 42 53 L 42 54 L 40 54 L 42 43 L 42 41 L 44 37 L 43 33 L 42 31 L 38 31 L 37 37 L 37 39 L 36 43 L 34 45 L 31 45 L 30 43 L 31 41 L 31 39 L 32 37 L 32 35 L 30 32 L 23 33 L 21 33 L 17 38 L 17 43 L 19 44 L 22 44 L 24 42 L 25 43 L 23 53 L 21 56 L 22 60 L 24 61 L 27 61 L 28 53 L 31 48 L 34 48 L 35 50 L 33 56 L 35 59 L 38 60 L 45 56 L 51 59 L 53 59 L 55 58 L 58 54 L 59 54 L 59 53 L 59 51 L 61 52 L 60 54 L 66 58 L 70 55 L 73 57 L 76 55 L 75 52 L 78 47 L 77 46 L 80 45 L 78 44 L 81 42 L 80 44 L 82 44 L 83 53 L 88 56 L 97 52 L 97 49 L 99 49 L 100 46 L 104 53 L 109 53 L 112 51 L 115 53 L 121 49 L 118 47 L 117 45 L 118 42 L 118 40 L 119 37 L 119 35 L 121 26 L 121 24 L 121 21 L 116 21 Z M 80 54 L 80 56 L 78 60 L 67 62 L 61 59 L 54 63 L 47 63 L 46 62 L 42 64 L 35 63 L 33 61 L 29 65 L 30 67 L 70 84 L 110 67 L 111 66 L 111 61 L 112 60 L 112 56 L 109 58 L 105 58 L 100 54 L 93 59 L 86 59 L 81 56 L 81 54 L 80 54 Z " /><path fill="rgb(254,127,0)" stroke="rgb(254,127,0)" stroke-width="1" opacity="1" d="M 58 19 L 61 19 L 61 24.5 L 57 26 L 58 19 Z " /><path fill="rgb(254,127,0)" stroke="rgb(254,127,0)" stroke-width="1" opacity="1" d="M 63 19 L 66 19 L 66 20.5 L 64 23.5 L 65 26 L 62 26 L 62 21.5 L 63 19 Z " /><path fill="rgb(254,127,0)" stroke="rgb(254,127,0)" stroke-width="1" opacity="1" d="M 68.5 19 L 71 20.5 L 70 26 L 66 26 L 66 24.5 L 68.5 19 Z " /><path fill="rgb(254,127,0)" stroke="rgb(254,127,0)" stroke-width="1" opacity="1" d="M 72 19 L 74 19 L 74 23.5 L 75 24.5 L 73.5 26 L 71 26 L 71 24.5 L 72 19 Z " /><path fill="rgb(254,127,0)" stroke="rgb(254,127,0)" stroke-width="1" opacity="1" d="M 77 19 L 79 19 L 79 20.5 L 78 26 L 76 26 L 76 22.5 L 77 19 Z " /><path fill="rgb(254,127,0)" stroke="rgb(254,127,0)" stroke-width="1" opacity="1" d="M 81.5 19 L 84 19.5 L 83 26 L 79 26 L 79 23.5 L 81.5 19 Z " /><path fill="rgb(254,127,0)" stroke="rgb(254,127,0)" stroke-width="1" opacity="1" d="M 23.5 36 L 26 37.5 L 25 40 L 23 40 L 23 38.5 L 22 37.5 L 23.5 36 Z " /><path fill="rgb(254,127,0)" stroke="rgb(254,127,0)" stroke-width="1" opacity="1" d="M 110.5 37 L 113 39.5 L 111 41.5 L 112 42.5 L 112 44 L 110.5 44 L 110.5 46 L 108 46.5 L 110 47.5 L 108.5 49 L 107 47.5 L 108 43.5 L 107 42.5 L 108.5 41 L 110 40.5 L 108 39.5 L 110 39 L 110.5 37 Z " /><path fill="rgb(254,127,0)" stroke="rgb(254,127,0)" stroke-width="1" opacity="1" d="M 91.5 38 L 93 40.5 L 91 43.5 L 93 47.5 L 88.5 52 L 88 49.5 L 88 44.5 L 90 42.5 L 89.5 41 L 92 40.5 L 90 39.5 L 91.5 38 Z " /><path fill="rgb(254,127,0)" stroke="rgb(254,127,0)" stroke-width="1" opacity="1" d="M 69 40 L 72 41.5 L 71 47.5 L 67.5 53 L 66 50.5 L 68 47.5 L 67 45.5 L 69 40 Z " /><path fill="rgb(254,127,0)" stroke="rgb(254,127,0)" stroke-width="1" opacity="1" d="M 52.5 43 L 55 43.5 L 52 45.5 L 53 48.5 L 54 50.5 L 52 52.5 L 52.5 54 L 49.5 56 L 49 53.5 L 50 48.5 L 49 47.5 L 51 45.5 L 50.5 44 L 52.5 43 Z " /><path fill="rgb(254,127,0)" stroke="rgb(254,127,0)" stroke-width="1" opacity="1" d="M 59.5 65 L 68 65.5 L 66.5 68 L 70 69.5 L 70.5 71 L 71 68 L 73 68 L 73 72.5 L 74 72.5 L 75 67 L 77 67 L 77 72.5 L 78 72.5 L 78 68.5 L 79.5 67 L 84 67 L 84 70 L 80 71.5 L 80 75 L 77.5 75 L 75.5 76 L 73.5 75 L 71.5 76 L 69.5 74 L 66.5 77 L 63 74.5 L 62.5 73 L 62 77 L 59 77 L 59 74.5 L 60 70 L 56 70 L 56 67.5 L 59.5 65 Z M 59 67 L 59 69 L 61 70 L 61 67 L 59 67 Z M 65 68 L 63 70 L 64 72 L 66 69 L 65 68 Z M 67 71 L 66 74 L 67 74 L 67 71 Z " /><path fill="rgb(254,127,127)" stroke="rgb(254,127,127)" stroke-width="1" opacity="1" d="M 18.5 17 L 17.5 19 L 18.5 17 Z " /><path fill="rgb(254,127,127)" stroke="rgb(254,127,127)" stroke-width="1" opacity="1" d="M 121.5 20 L 120.5 22 L 121.5 20 Z " /><path fill="rgb(254,127,127)" stroke="rgb(254,127,127)" stroke-width="1" opacity="1" d="M 65.5 22 L 64.5 24 L 65.5 22 Z " /><path fill="rgb(254,127,127)" stroke="rgb(254,127,127)" stroke-width="1" opacity="1" d="M 45.5 29 L 46.5 31 L 45.5 29 Z " /><path fill="rgb(254,127,127)" stroke="rgb(254,127,127)" stroke-width="1" opacity="1" d="M 25.5 32 L 30 32.5 L 25.5 33 L 25.5 32 Z " /><path fill="rgb(254,127,127)" stroke="rgb(254,127,127)" stroke-width="1" opacity="1" d="M 65.5 32 L 68 32.5 L 65.5 33 L 65.5 32 Z " /><path fill="rgb(254,127,127)" stroke="rgb(254,127,127)" stroke-width="1" opacity="1" d="M 31.5 34 L 32 36.5 L 31 36.5 L 31.5 34 Z " /><path fill="rgb(254,127,127)" stroke="rgb(254,127,127)" stroke-width="1" opacity="1" d="M 91.5 35 L 95 35.5 L 91.5 36 L 91.5 35 Z " /><path fill="rgb(254,127,127)" stroke="rgb(254,127,127)" stroke-width="1" opacity="1" d="M 82.5 36 L 85.5 37 L 86.5 36 L 88 37.5 L 86.5 39 L 84.5 37 L 82.5 37 L 82.5 36 Z " /><path fill="rgb(254,127,127)" stroke="rgb(254,127,127)" stroke-width="1" opacity="1" d="M 70.5 37 L 73 37.5 L 70.5 38 L 70.5 37 Z " /><path fill="rgb(254,127,127)" stroke="rgb(254,127,127)" stroke-width="1" opacity="1" d="M 76.5 37 L 78 40.5 L 77 40.5 L 76.5 37 Z " /><path fill="rgb(254,127,127)" stroke="rgb(254,127,127)" stroke-width="1" opacity="1" d="M 61.5 38 L 61 39.5 L 60.5 41 L 60 39.5 L 61.5 38 Z " /><path fill="rgb(254,127,127)" stroke="rgb(254,127,127)" stroke-width="1" opacity="1" d="M 22.5 40 L 24 40 L 24 41.5 L 22.5 40 Z " /><path fill="rgb(254,127,127)" stroke="rgb(254,127,127)" stroke-width="1" opacity="1" d="M 46.5 40 L 44.5 43 L 46.5 40 Z " /><path fill="rgb(254,127,127)" stroke="rgb(254,127,127)" stroke-width="1" opacity="1" d="M 91.5 40 L 94 40.5 L 92.5 42 L 91.5 40 Z " /><path fill="rgb(254,127,127)" stroke="rgb(254,127,127)" stroke-width="1" opacity="1" d="M 17.5 42 L 18.5 44 L 17.5 42 Z " /><path fill="rgb(254,127,127)" stroke="rgb(254,127,127)" stroke-width="1" opacity="1" d="M 80.5 43 L 83 43.5 L 79.5 45 L 80.5 43 Z " /><path fill="rgb(254,127,127)" stroke="rgb(254,127,127)" stroke-width="1" opacity="1" d="M 106.5 44 L 107 47.5 L 106 47.5 L 106.5 44 Z " /><path fill="rgb(254,127,127)" stroke="rgb(254,127,127)" stroke-width="1" opacity="1" d="M 82.5 45 L 83 50.5 L 82 50.5 L 82.5 45 Z " /><path fill="rgb(254,127,127)" stroke="rgb(254,127,127)" stroke-width="1" opacity="1" d="M 32.5 47 L 35 47.5 L 32.5 48 L 32.5 47 Z " /><path fill="rgb(254,127,127)" stroke="rgb(254,127,127)" stroke-width="1" opacity="1" d="M 87.5 48 L 88 50.5 L 87 50.5 L 87.5 48 Z " /><path fill="rgb(254,127,127)" stroke="rgb(254,127,127)" stroke-width="1" opacity="1" d="M 111.5 49 L 108.5 53 L 111.5 49 Z " /><path fill="rgb(254,127,127)" stroke="rgb(254,127,127)" stroke-width="1" opacity="1" d="M 119.5 49 L 117.5 52 L 119.5 49 Z " /><path fill="rgb(254,127,127)" stroke="rgb(254,127,127)" stroke-width="1" opacity="1" d="M 48.5 50 L 49 54.5 L 48 54.5 L 48.5 50 Z " /><path fill="rgb(254,127,127)" stroke="rgb(254,127,127)" stroke-width="1" opacity="1" d="M 91.5 50 L 90.5 52 L 91.5 50 Z " /><path fill="rgb(254,127,127)" stroke="rgb(254,127,127)" stroke-width="1" opacity="1" d="M 96.5 50 L 94.5 53 L 96.5 50 Z " /><path fill="rgb(254,127,127)" stroke="rgb(254,127,127)" stroke-width="1" opacity="1" d="M 102.5 51 L 103.5 53 L 102.5 51 Z " /><path fill="rgb(254,127,127)" stroke="rgb(254,127,127)" stroke-width="1" opacity="1" d="M 39.5 52 L 41 55.5 L 39 54.5 L 39.5 52 Z " /><path fill="rgb(254,127,127)" stroke="rgb(254,127,127)" stroke-width="1" opacity="1" d="M 83.5 52 L 84.5 54 L 83.5 52 Z " /><path fill="rgb(254,127,127)" stroke="rgb(254,127,127)" stroke-width="1" opacity="1" d="M 74.5 55 L 75.5 57 L 74.5 55 Z " /><path fill="rgb(254,127,127)" stroke="rgb(254,127,127)" stroke-width="1" opacity="1" d="M 43.5 56 L 42.5 58 L 43.5 56 Z " /><path fill="rgb(254,127,127)" stroke="rgb(254,127,127)" stroke-width="1" opacity="1" d="M 48.5 58 L 51 58.5 L 48.5 59 L 48.5 58 Z " /><path fill="rgb(254,127,127)" stroke="rgb(254,127,127)" stroke-width="1" opacity="1" d="M 30.5 63 L 29.5 65 L 30.5 63 Z " /><path fill="rgb(254,127,127)" stroke="rgb(254,127,127)" stroke-width="1" opacity="1" d="M 73.5 68 L 75 70.5 L 73 69.5 L 73.5 68 Z " /><path fill="rgb(254,254,127)" stroke="rgb(254,254,127)" stroke-width="1" opacity="1" d="M 117.5 21 L 121 22.5 L 119.5 22 L 117.5 22 L 117.5 21 Z " /><path fill="rgb(254,254,127)" stroke="rgb(254,254,127)" stroke-width="1" opacity="1" d="M 64.5 33 L 65 35.5 L 64 35.5 L 64.5 33 Z " /><path fill="rgb(254,254,127)" stroke="rgb(254,254,127)" stroke-width="1" opacity="1" d="M 20.5 34 L 18.5 37 L 20.5 34 Z " /><path fill="rgb(254,254,127)" stroke="rgb(254,254,127)" stroke-width="1" opacity="1" d="M 96.5 36 L 97.5 38 L 96.5 36 Z " /><path fill="rgb(254,254,127)" stroke="rgb(254,254,127)" stroke-width="1" opacity="1" d="M 105.5 36 L 104.5 38 L 105.5 36 Z " /><path fill="rgb(254,254,127)" stroke="rgb(254,254,127)" stroke-width="1" opacity="1" d="M 73.5 37 L 76 37.5 L 72.5 39 L 73.5 37 Z " /><path fill="rgb(254,254,127)" stroke="rgb(254,254,127)" stroke-width="1" opacity="1" d="M 109.5 37 L 108.5 39 L 109.5 37 Z " /><path fill="rgb(254,254,127)" stroke="rgb(254,254,127)" stroke-width="1" opacity="1" d="M 79.5 38 L 78.5 40 L 79.5 38 Z " /><path fill="rgb(254,254,127)" stroke="rgb(254,254,127)" stroke-width="1" opacity="1" d="M 52.5 39 L 56 39.5 L 52.5 40 L 52.5 39 Z " /><path fill="rgb(254,254,127)" stroke="rgb(254,254,127)" stroke-width="1" opacity="1" d="M 57.5 40 L 58.5 42 L 57.5 40 Z " /><path fill="rgb(254,254,127)" stroke="rgb(254,254,127)" stroke-width="1" opacity="1" d="M 80.5 40 L 81.5 42 L 80.5 41 L 78 42.5 L 80.5 40 Z " /><path fill="rgb(254,254,127)" stroke="rgb(254,254,127)" stroke-width="1" opacity="1" d="M 116.5 44 L 117.5 48 L 120 47 L 119.5 49 L 116 47.5 L 116.5 44 Z " /><path fill="rgb(254,254,127)" stroke="rgb(254,254,127)" stroke-width="1" opacity="1" d="M 53.5 45 L 54 47.5 L 53 47.5 L 53.5 45 Z " /><path fill="rgb(254,254,127)" stroke="rgb(254,254,127)" stroke-width="1" opacity="1" d="M 87.5 45 L 88 47.5 L 87 47.5 L 87.5 45 Z " /><path fill="rgb(254,254,127)" stroke="rgb(254,254,127)" stroke-width="1" opacity="1" d="M 101.5 45 L 102 48.5 L 101 48.5 L 101.5 45 Z " /><path fill="rgb(254,254,127)" stroke="rgb(254,254,127)" stroke-width="1" opacity="1" d="M 29.5 47 L 32 47.5 L 29 48 L 28.5 50 L 28 48.5 L 29.5 47 Z " /><path fill="rgb(254,254,127)" stroke="rgb(254,254,127)" stroke-width="1" opacity="1" d="M 106.5 48 L 107.5 50 L 106.5 48 Z " /><path fill="rgb(254,254,127)" stroke="rgb(254,254,127)" stroke-width="1" opacity="1" d="M 61.5 49 L 62 53.5 L 61 53.5 L 61.5 49 Z " /><path fill="rgb(254,254,127)" stroke="rgb(254,254,127)" stroke-width="1" opacity="1" d="M 43.5 50 L 44 53.5 L 42 54.5 L 43.5 50 Z " /><path fill="rgb(254,254,127)" stroke="rgb(254,254,127)" stroke-width="1" opacity="1" d="M 70.5 50 L 71 51.5 L 69 52.5 L 70.5 50 Z " /><path fill="rgb(254,254,127)" stroke="rgb(254,254,127)" stroke-width="1" opacity="1" d="M 112.5 50 L 113.5 52 L 112.5 50 Z " /><path fill="rgb(254,254,127)" stroke="rgb(254,254,127)" stroke-width="1" opacity="1" d="M 34.5 52 L 35 56.5 L 34 56.5 L 34.5 52 Z " /><path fill="rgb(254,254,127)" stroke="rgb(254,254,127)" stroke-width="1" opacity="1" d="M 57.5 53 L 54.5 57 L 57.5 53 Z " /><path fill="rgb(254,254,127)" stroke="rgb(254,254,127)" stroke-width="1" opacity="1" d="M 52.5 54 L 51.5 56 L 52.5 54 Z " /><path fill="rgb(254,254,127)" stroke="rgb(254,254,127)" stroke-width="1" opacity="1" d="M 87.5 54 L 90 54.5 L 87.5 55 L 87.5 54 Z " /><path fill="rgb(254,254,127)" stroke="rgb(254,254,127)" stroke-width="1" opacity="1" d="M 64.5 56 L 67 56.5 L 64.5 57 L 64.5 56 Z " /><path fill="rgb(254,254,254)" stroke="rgb(254,254,254)" stroke-width="1" opacity="1" d="M 116 22 L 119.5 22 L 121 23.5 L 116 47.5 L 119 48.5 L 117.5 51 L 114.5 52 L 111.5 49 L 108.5 52 L 105.5 53 L 102 50.5 L 102 45.5 L 100.5 45 L 98 46 L 97 49.5 L 93.5 53 L 85.5 54 L 83 50.5 L 83 44.5 L 83.5 43 L 81 42.5 L 82 41.5 L 80.5 40 L 75 48.5 L 74 56 L 68.5 55 L 63.5 56 L 62 54.5 L 62 49 L 58 51.5 L 53.5 57 L 47.5 58 L 43.5 56 L 39.5 59 L 36.5 59 L 35 57.5 L 35 49.5 L 36 47 L 29.5 47 L 28 48.5 L 27 60 L 23.5 60 L 22 58.5 L 27 35 L 24.5 35 L 21 38.5 L 23 41.5 L 21.5 43 L 18.5 43 L 17 41.5 L 17 38.5 L 21.5 34 L 31 33 L 29 46 L 35.5 45 L 37 43.5 L 38 32 L 41.5 32 L 43 33.5 L 39 54.5 L 40.5 56 L 41.5 55 L 44 53.5 L 44 47.5 L 48.5 41 L 56.5 40 L 60 45.5 L 59 48 L 63 45.5 L 63 40.5 L 61.5 40 L 61.5 39 L 64 39 L 64 36.5 L 65 33 L 69 34.5 L 68 38 L 72 38.5 L 67 41.5 L 66 53 L 69.5 53 L 71 51.5 L 73 38 L 77 38 L 77 40.5 L 81.5 37 L 85 37 L 85 39 L 86.5 39 L 90.5 36 L 95.5 36 L 99 40.5 L 99 44 L 103 41.5 L 103 39.5 L 107.5 35 L 111.5 34 L 114 35 L 116 22 Z M 112 36 L 110 37 L 106 43 L 106 49 L 108 50 L 110 49 L 113 43 L 113 40 L 114 39 L 112 36 Z M 92 38 L 87 46 L 87 51 L 90 53 L 94 47 L 93 45 L 93 42 L 95 40 L 92 38 Z M 53 41 L 48 49 L 48 55 L 52 56 L 55 51 L 54 49 L 55 43 L 53 41 Z " /></svg>