<?xml version="1.0" encoding="UTF-8" standalone="no" ?>
<!DOCTYPE svg PUBLIC "-//W3C//DTD SVG 1.1//EN" "http://www.w3.org/Graphics/SVG/1.1/DTD/svg11.dtd">
<svg xmlns="http://www.w3.org/2000/svg" xmlns:xlink="http://www.w3.org/1999/xlink" version="1.1" width="215" height="240" viewBox="0 0 215 240" xml:space="preserve">
<desc>Created with Fabric.js 5.3.0</desc>
<defs>
</defs>
<g transform="matrix(0.9333332753 0 0 0.9333332753 175.0541950507 40)" id="WhzWO6rBfEVjNOjTc9P7h"  >
<path style="stroke: rgb(200,161,62); stroke-width: 0; stroke-dasharray: none; stroke-linecap: butt; stroke-dashoffset: 0; stroke-linejoin: miter; stroke-miterlimit: 4; fill: rgb(200,161,62); fill-rule: nonzero; opacity: 1;" vector-effect="non-scaling-stroke"  transform=" translate(0, 0)" d="M 0 -42.85715 C 23.65714 -42.85715 42.85715 -23.657149999999998 42.85715 0 C 42.85715 23.65714 23.657149999999998 42.85715 0 42.85715 C -23.65714 42.85715 -42.85715 23.657149999999998 -42.85715 0 C -42.85715 -23.65714 -23.657149999999998 -42.85715 0 -42.85715 z" stroke-linecap="round" />
</g>
<g transform="matrix(0.4591836735 0 0 0.4591836735 175.0541950507 40)" id="clnZo1ipgzdEIoDZ0pCac"  >
<path style="stroke: none; stroke-width: 1; stroke-dasharray: none; stroke-linecap: butt; stroke-dashoffset: 0; stroke-linejoin: miter; stroke-miterlimit: 4; fill: rgb(255,255,255); fill-rule: nonzero; opacity: 1;" vector-effect="non-scaling-stroke"  transform=" translate(0, 0)" d="M 40 12.5 L 12.5 12.5 L 12.5 40 L -12.5 40 L -12.5 12.5 L -40 12.5 L -40 -12.5 L -12.5 -12.5 L -12.5 -40 L 12.5 -40 L 12.5 -12.5 L 40 -12.5 z" stroke-linecap="round" />
</g>
<g transform="matrix(3.276 0 0 3.276 90.025673117 188.1181954112)" id="Jq9DS8vbQfAj28jGEw4-y"  >
<path style="stroke: rgb(34,18,188); stroke-width: 0; stroke-dasharray: none; stroke-linecap: butt; stroke-dashoffset: 0; stroke-linejoin: miter; stroke-miterlimit: 4; fill: rgb(200,161,62); fill-rule: nonzero; opacity: 1;" vector-effect="non-scaling-stroke"  transform=" translate(0, 0)" d="M -27.47253 0.94949 C -27.47253 0.84332 -27.43017 0.7415499999999999 -27.35485 0.6667299999999999 L -22.691689999999998 -3.9652500000000006 L -22.691689999999998 -3.9652500000000006 C -21.676 -4.974150000000001 -20.2945 -5.527900000000001 -18.863159999999997 -5.49985 C -17.43182 -5.4718 -16.073079999999997 -4.86435 -15.097699999999996 -3.8164200000000004 L -9.656399999999996 2.02955 L 6.093260000000004 -14.26793 L 6.093260000000004 -14.26793 C 7.077570000000004 -15.28647 8.431530000000004 -15.86429 9.847950000000004 -15.87028 C 11.264370000000005 -15.87627 12.623180000000005 -15.30993 13.616070000000004 -14.29976 L 27.472540000000002 -0.20202999999999882 L 27.472540000000002 8.22606 L 27.472540000000002 8.22606 C 27.472540000000002 12.447880000000001 24.05008 15.87033 19.828270000000003 15.87033 L -20.562419999999996 15.87033 L -20.562419999999996 15.87033 C -24.378759999999996 15.87033 -27.472509999999996 12.77658 -27.472509999999996 8.960239999999999 z" stroke-linecap="round" />
</g>
<g transform="matrix(1 0 0 1 123.2747252747 324.7252747253)" id="YaTCQRpqCFJaEwK-jXzZQ"  >
<path style="stroke: rgb(0,0,0); stroke-width: 1; stroke-dasharray: none; stroke-linecap: butt; stroke-dashoffset: 0; stroke-linejoin: miter; stroke-miterlimit: 4; fill: rgb(255,255,255); fill-opacity: 0; fill-rule: nonzero; opacity: 1;" vector-effect="non-scaling-stroke"  transform=" translate(0, 0)" d="M 0 0" stroke-linecap="round" />
</g>
<g transform="matrix(1 0 0 1 174.0916026791 125.7821205134)" id="Le6lWaKbA51ow0tAOV_SQ"  >
<path style="stroke: rgb(180,180,180); stroke-width: 10; stroke-dasharray: none; stroke-linecap: butt; stroke-dashoffset: 0; stroke-linejoin: miter; stroke-miterlimit: 4; fill: rgb(202,200,200); fill-rule: nonzero; opacity: 1;" vector-effect="non-scaling-stroke"  transform=" translate(0, 0)" d="M 0 -22.41594 C 0 -20.06338 0 -39.711529999999996 0 -33.61373 C 0 -18.098409999999998 0 21.857680000000002 0 34.21788 C 0 37.71335 0 24.13757 0 24.13757" stroke-linecap="round" />
</g>
<g transform="matrix(1.143689503 0 0 1.0160893294 69.8669039834 85.6302463639)" id="cT8XCXOD4fdyTgSxIvKPD"  >
<path style="stroke: rgb(180,180,180); stroke-width: 10; stroke-dasharray: none; stroke-linecap: butt; stroke-dashoffset: 0; stroke-linejoin: miter; stroke-miterlimit: 4; fill: rgb(255,255,255); fill-opacity: 0; fill-rule: nonzero; opacity: 1;" vector-effect="non-scaling-stroke"  transform=" translate(0, 0)" d="M -56.69479 68.27131 C -56.69479 68.27131 -56.69479 97.64853 -56.69479 60.74233 C -56.69479 29.858870000000003 -56.69479 -17.804139999999997 -56.69479 -56.4912 L -56.69479 -56.4912 C -56.69479 -62.55466 -54.554829999999995 -68.36977 -50.74567 -72.65729 C -46.93651 -76.9448 -41.770179999999996 -79.3535 -36.383219999999994 -79.3535 C -8.250549999999993 -79.3535 27.68359000000001 -79.3535 48.8673 -79.3535 C 75.09819999999999 -79.3535 26.99425 -79.3535 26.99425 -79.3535" stroke-linecap="round" />
</g>
<g transform="matrix(4.6164256332 0 0 1.8944700636 63.4932555316 80)" id="xXfiIQGA5SQiHQQtXcC5a"  >
<path style="stroke: rgb(180,180,180); stroke-width: 0; stroke-dasharray: none; stroke-linecap: butt; stroke-dashoffset: 0; stroke-linejoin: miter; stroke-miterlimit: 4; fill: rgb(180,180,180); fill-rule: nonzero; opacity: 1;" vector-effect="non-scaling-stroke"  transform=" translate(-0.0000045012, 6.599e-7)" d="M -9.41783 6.7925 C -9.47295 0.052530000000000854 -6.807300000000001 0.43118000000000034 -6.807300000000001 0.43118000000000034 C -6.231750000000001 0.45834000000000036 -6.152880000000001 0.6171800000000003 -6.152880000000001 0.6171800000000003 C -6.152880000000001 0.6171800000000003 -6.621880000000001 -2.1291999999999995 -5.29593 -4.67071 C -4.06377 -6.9496899999999995 -2.8121600000000004 -5.0645999999999995 -2.8121600000000004 -5.0645999999999995 C -2.8121600000000004 -5.0645999999999995 -2.1350900000000004 -13.876100000000001 1.5605899999999995 -13.11054 C 5.256269999999999 -12.34498 5.281479999999999 -3.7713300000000007 5.281479999999999 -3.7713300000000007 L 5.915349999999999 -3.9192400000000007 C 5.915349999999999 -3.9192400000000007 9.39261 -4.010250000000001 9.41854 4.617290000000001 C 9.44447 13.24484 5.91535 13.153820000000001 5.91535 13.153820000000001 L -6.8073 13.153820000000001 C -6.8073 13.153820000000001 -9.36272 13.532470000000002 -9.417829999999999 6.792500000000001 z" stroke-linecap="round" />
</g>
</svg>